<?xml version="1.0" encoding="utf-8"?>
<svg xmlns="http://www.w3.org/2000/svg" xmlns:xlink="http://www.w3.org/1999/xlink" style="margin: auto; background: rgba(0, 0, 0, 0) none repeat scroll 0% 0%; display: block; shape-rendering: auto;" width="194px" height="194px" viewBox="0 0 100 100" preserveAspectRatio="xMidYMid">
<g transform="rotate(0 50 50)">
  <rect x="46.5" y="33.5" rx="2.38" ry="0.5" width="7" height="1" fill="#0a0a0a">
    <animate attributeName="opacity" values="1;0" keyTimes="0;1" dur="0.4545454545454546s" begin="-0.4422604422604423s" repeatCount="indefinite"></animate>
  </rect>
</g><g transform="rotate(9.72972972972973 50 50)">
  <rect x="46.5" y="33.5" rx="2.38" ry="0.5" width="7" height="1" fill="#0a0a0a">
    <animate attributeName="opacity" values="1;0" keyTimes="0;1" dur="0.4545454545454546s" begin="-0.42997542997543003s" repeatCount="indefinite"></animate>
  </rect>
</g><g transform="rotate(19.45945945945946 50 50)">
  <rect x="46.5" y="33.5" rx="2.38" ry="0.5" width="7" height="1" fill="#0a0a0a">
    <animate attributeName="opacity" values="1;0" keyTimes="0;1" dur="0.4545454545454546s" begin="-0.41769041769041776s" repeatCount="indefinite"></animate>
  </rect>
</g><g transform="rotate(29.18918918918919 50 50)">
  <rect x="46.5" y="33.5" rx="2.38" ry="0.5" width="7" height="1" fill="#0a0a0a">
    <animate attributeName="opacity" values="1;0" keyTimes="0;1" dur="0.4545454545454546s" begin="-0.40540540540540543s" repeatCount="indefinite"></animate>
  </rect>
</g><g transform="rotate(38.91891891891892 50 50)">
  <rect x="46.5" y="33.5" rx="2.38" ry="0.5" width="7" height="1" fill="#0a0a0a">
    <animate attributeName="opacity" values="1;0" keyTimes="0;1" dur="0.4545454545454546s" begin="-0.39312039312039315s" repeatCount="indefinite"></animate>
  </rect>
</g><g transform="rotate(48.648648648648646 50 50)">
  <rect x="46.5" y="33.5" rx="2.38" ry="0.5" width="7" height="1" fill="#0a0a0a">
    <animate attributeName="opacity" values="1;0" keyTimes="0;1" dur="0.4545454545454546s" begin="-0.3808353808353809s" repeatCount="indefinite"></animate>
  </rect>
</g><g transform="rotate(58.37837837837838 50 50)">
  <rect x="46.5" y="33.5" rx="2.38" ry="0.5" width="7" height="1" fill="#0a0a0a">
    <animate attributeName="opacity" values="1;0" keyTimes="0;1" dur="0.4545454545454546s" begin="-0.3685503685503686s" repeatCount="indefinite"></animate>
  </rect>
</g><g transform="rotate(68.10810810810811 50 50)">
  <rect x="46.5" y="33.5" rx="2.38" ry="0.5" width="7" height="1" fill="#0a0a0a">
    <animate attributeName="opacity" values="1;0" keyTimes="0;1" dur="0.4545454545454546s" begin="-0.3562653562653563s" repeatCount="indefinite"></animate>
  </rect>
</g><g transform="rotate(77.83783783783784 50 50)">
  <rect x="46.5" y="33.5" rx="2.38" ry="0.5" width="7" height="1" fill="#0a0a0a">
    <animate attributeName="opacity" values="1;0" keyTimes="0;1" dur="0.4545454545454546s" begin="-0.343980343980344s" repeatCount="indefinite"></animate>
  </rect>
</g><g transform="rotate(87.56756756756756 50 50)">
  <rect x="46.5" y="33.5" rx="2.38" ry="0.5" width="7" height="1" fill="#0a0a0a">
    <animate attributeName="opacity" values="1;0" keyTimes="0;1" dur="0.4545454545454546s" begin="-0.3316953316953317s" repeatCount="indefinite"></animate>
  </rect>
</g><g transform="rotate(97.29729729729729 50 50)">
  <rect x="46.5" y="33.5" rx="2.38" ry="0.5" width="7" height="1" fill="#0a0a0a">
    <animate attributeName="opacity" values="1;0" keyTimes="0;1" dur="0.4545454545454546s" begin="-0.31941031941031944s" repeatCount="indefinite"></animate>
  </rect>
</g><g transform="rotate(107.02702702702703 50 50)">
  <rect x="46.5" y="33.5" rx="2.38" ry="0.5" width="7" height="1" fill="#0a0a0a">
    <animate attributeName="opacity" values="1;0" keyTimes="0;1" dur="0.4545454545454546s" begin="-0.30712530712530717s" repeatCount="indefinite"></animate>
  </rect>
</g><g transform="rotate(116.75675675675676 50 50)">
  <rect x="46.5" y="33.5" rx="2.38" ry="0.5" width="7" height="1" fill="#0a0a0a">
    <animate attributeName="opacity" values="1;0" keyTimes="0;1" dur="0.4545454545454546s" begin="-0.2948402948402949s" repeatCount="indefinite"></animate>
  </rect>
</g><g transform="rotate(126.48648648648648 50 50)">
  <rect x="46.5" y="33.5" rx="2.38" ry="0.5" width="7" height="1" fill="#0a0a0a">
    <animate attributeName="opacity" values="1;0" keyTimes="0;1" dur="0.4545454545454546s" begin="-0.28255528255528256s" repeatCount="indefinite"></animate>
  </rect>
</g><g transform="rotate(136.21621621621622 50 50)">
  <rect x="46.5" y="33.5" rx="2.38" ry="0.5" width="7" height="1" fill="#0a0a0a">
    <animate attributeName="opacity" values="1;0" keyTimes="0;1" dur="0.4545454545454546s" begin="-0.2702702702702703s" repeatCount="indefinite"></animate>
  </rect>
</g><g transform="rotate(145.94594594594594 50 50)">
  <rect x="46.5" y="33.5" rx="2.38" ry="0.5" width="7" height="1" fill="#0a0a0a">
    <animate attributeName="opacity" values="1;0" keyTimes="0;1" dur="0.4545454545454546s" begin="-0.257985257985258s" repeatCount="indefinite"></animate>
  </rect>
</g><g transform="rotate(155.67567567567568 50 50)">
  <rect x="46.5" y="33.5" rx="2.38" ry="0.5" width="7" height="1" fill="#0a0a0a">
    <animate attributeName="opacity" values="1;0" keyTimes="0;1" dur="0.4545454545454546s" begin="-0.24570024570024573s" repeatCount="indefinite"></animate>
  </rect>
</g><g transform="rotate(165.40540540540542 50 50)">
  <rect x="46.5" y="33.5" rx="2.38" ry="0.5" width="7" height="1" fill="#0a0a0a">
    <animate attributeName="opacity" values="1;0" keyTimes="0;1" dur="0.4545454545454546s" begin="-0.23341523341523343s" repeatCount="indefinite"></animate>
  </rect>
</g><g transform="rotate(175.13513513513513 50 50)">
  <rect x="46.5" y="33.5" rx="2.38" ry="0.5" width="7" height="1" fill="#0a0a0a">
    <animate attributeName="opacity" values="1;0" keyTimes="0;1" dur="0.4545454545454546s" begin="-0.22113022113022116s" repeatCount="indefinite"></animate>
  </rect>
</g><g transform="rotate(184.86486486486487 50 50)">
  <rect x="46.5" y="33.5" rx="2.38" ry="0.5" width="7" height="1" fill="#0a0a0a">
    <animate attributeName="opacity" values="1;0" keyTimes="0;1" dur="0.4545454545454546s" begin="-0.20884520884520888s" repeatCount="indefinite"></animate>
  </rect>
</g><g transform="rotate(194.59459459459458 50 50)">
  <rect x="46.5" y="33.5" rx="2.38" ry="0.5" width="7" height="1" fill="#0a0a0a">
    <animate attributeName="opacity" values="1;0" keyTimes="0;1" dur="0.4545454545454546s" begin="-0.19656019656019658s" repeatCount="indefinite"></animate>
  </rect>
</g><g transform="rotate(204.32432432432432 50 50)">
  <rect x="46.5" y="33.5" rx="2.38" ry="0.5" width="7" height="1" fill="#0a0a0a">
    <animate attributeName="opacity" values="1;0" keyTimes="0;1" dur="0.4545454545454546s" begin="-0.1842751842751843s" repeatCount="indefinite"></animate>
  </rect>
</g><g transform="rotate(214.05405405405406 50 50)">
  <rect x="46.5" y="33.5" rx="2.38" ry="0.5" width="7" height="1" fill="#0a0a0a">
    <animate attributeName="opacity" values="1;0" keyTimes="0;1" dur="0.4545454545454546s" begin="-0.171990171990172s" repeatCount="indefinite"></animate>
  </rect>
</g><g transform="rotate(223.78378378378378 50 50)">
  <rect x="46.5" y="33.5" rx="2.38" ry="0.5" width="7" height="1" fill="#0a0a0a">
    <animate attributeName="opacity" values="1;0" keyTimes="0;1" dur="0.4545454545454546s" begin="-0.15970515970515972s" repeatCount="indefinite"></animate>
  </rect>
</g><g transform="rotate(233.51351351351352 50 50)">
  <rect x="46.5" y="33.5" rx="2.38" ry="0.5" width="7" height="1" fill="#0a0a0a">
    <animate attributeName="opacity" values="1;0" keyTimes="0;1" dur="0.4545454545454546s" begin="-0.14742014742014745s" repeatCount="indefinite"></animate>
  </rect>
</g><g transform="rotate(243.24324324324326 50 50)">
  <rect x="46.5" y="33.5" rx="2.38" ry="0.5" width="7" height="1" fill="#0a0a0a">
    <animate attributeName="opacity" values="1;0" keyTimes="0;1" dur="0.4545454545454546s" begin="-0.13513513513513514s" repeatCount="indefinite"></animate>
  </rect>
</g><g transform="rotate(252.97297297297297 50 50)">
  <rect x="46.5" y="33.5" rx="2.38" ry="0.5" width="7" height="1" fill="#0a0a0a">
    <animate attributeName="opacity" values="1;0" keyTimes="0;1" dur="0.4545454545454546s" begin="-0.12285012285012287s" repeatCount="indefinite"></animate>
  </rect>
</g><g transform="rotate(262.7027027027027 50 50)">
  <rect x="46.5" y="33.5" rx="2.38" ry="0.5" width="7" height="1" fill="#0a0a0a">
    <animate attributeName="opacity" values="1;0" keyTimes="0;1" dur="0.4545454545454546s" begin="-0.11056511056511058s" repeatCount="indefinite"></animate>
  </rect>
</g><g transform="rotate(272.43243243243245 50 50)">
  <rect x="46.5" y="33.5" rx="2.38" ry="0.5" width="7" height="1" fill="#0a0a0a">
    <animate attributeName="opacity" values="1;0" keyTimes="0;1" dur="0.4545454545454546s" begin="-0.09828009828009829s" repeatCount="indefinite"></animate>
  </rect>
</g><g transform="rotate(282.1621621621622 50 50)">
  <rect x="46.5" y="33.5" rx="2.38" ry="0.5" width="7" height="1" fill="#0a0a0a">
    <animate attributeName="opacity" values="1;0" keyTimes="0;1" dur="0.4545454545454546s" begin="-0.085995085995086s" repeatCount="indefinite"></animate>
  </rect>
</g><g transform="rotate(291.8918918918919 50 50)">
  <rect x="46.5" y="33.5" rx="2.38" ry="0.5" width="7" height="1" fill="#0a0a0a">
    <animate attributeName="opacity" values="1;0" keyTimes="0;1" dur="0.4545454545454546s" begin="-0.07371007371007372s" repeatCount="indefinite"></animate>
  </rect>
</g><g transform="rotate(301.6216216216216 50 50)">
  <rect x="46.5" y="33.5" rx="2.38" ry="0.5" width="7" height="1" fill="#0a0a0a">
    <animate attributeName="opacity" values="1;0" keyTimes="0;1" dur="0.4545454545454546s" begin="-0.061425061425061434s" repeatCount="indefinite"></animate>
  </rect>
</g><g transform="rotate(311.35135135135135 50 50)">
  <rect x="46.5" y="33.5" rx="2.38" ry="0.5" width="7" height="1" fill="#0a0a0a">
    <animate attributeName="opacity" values="1;0" keyTimes="0;1" dur="0.4545454545454546s" begin="-0.049140049140049144s" repeatCount="indefinite"></animate>
  </rect>
</g><g transform="rotate(321.0810810810811 50 50)">
  <rect x="46.5" y="33.5" rx="2.38" ry="0.5" width="7" height="1" fill="#0a0a0a">
    <animate attributeName="opacity" values="1;0" keyTimes="0;1" dur="0.4545454545454546s" begin="-0.03685503685503686s" repeatCount="indefinite"></animate>
  </rect>
</g><g transform="rotate(330.81081081081084 50 50)">
  <rect x="46.5" y="33.5" rx="2.38" ry="0.5" width="7" height="1" fill="#0a0a0a">
    <animate attributeName="opacity" values="1;0" keyTimes="0;1" dur="0.4545454545454546s" begin="-0.024570024570024572s" repeatCount="indefinite"></animate>
  </rect>
</g><g transform="rotate(340.5405405405405 50 50)">
  <rect x="46.5" y="33.5" rx="2.38" ry="0.5" width="7" height="1" fill="#0a0a0a">
    <animate attributeName="opacity" values="1;0" keyTimes="0;1" dur="0.4545454545454546s" begin="-0.012285012285012286s" repeatCount="indefinite"></animate>
  </rect>
</g><g transform="rotate(350.27027027027026 50 50)">
  <rect x="46.5" y="33.5" rx="2.38" ry="0.5" width="7" height="1" fill="#0a0a0a">
    <animate attributeName="opacity" values="1;0" keyTimes="0;1" dur="0.4545454545454546s" begin="0s" repeatCount="indefinite"></animate>
  </rect>
</g>
<!-- [ldio] generated by https://loading.io/ --></svg>