<svg id="visual" viewBox="0 0 900 600" width="900" height="600" xmlns="http://www.w3.org/2000/svg" xmlns:xlink="http://www.w3.org/1999/xlink" version="1.1"><rect x="0" y="0" width="900" height="600" fill="#0f0e17"></rect><path d="M0 53L13.7 54.8C27.3 56.7 54.7 60.3 82 62.3C109.3 64.3 136.7 64.7 163.8 62C191 59.3 218 53.7 245.2 49C272.3 44.3 299.7 40.7 327 44.5C354.3 48.3 381.7 59.7 409 70C436.3 80.3 463.7 89.7 491 94.5C518.3 99.3 545.7 99.7 573 93.7C600.3 87.7 627.7 75.3 654.8 69.5C682 63.7 709 64.3 736.2 61.5C763.3 58.7 790.7 52.3 818 52.2C845.3 52 872.7 58 886.3 61L900 64" fill="none" stroke-linecap="round" stroke-linejoin="miter" stroke="#ff8906" stroke-width="40"></path></svg>